<svg xmlns="http://www.w3.org/2000/svg" width="15.323" height="20.116" viewBox="0 0 15.323 20.116">
    <defs>
        <style>
            .cls-2{fill:#fff}
        </style>
    </defs>
    <g id="bid-icon" opacity="0.43">
        <path id="Path_1" d="M0 .589v5.933a.589.589 0 0 0 .589.589h3.536v1.218h2.358V7.111h3.536a.589.589 0 0 0 .589-.589V.589A.589.589 0 0 0 10.019 0H.589A.589.589 0 0 0 0 .589zm3.119 2.57a.589.589 0 0 1 .833 0l.762.762L6.655 1.98a.589.589 0 0 1 .833.833L5.131 5.171a.589.589 0 0 1-.833 0L3.119 3.992a.589.589 0 0 1 0-.833zm0 0" class="cls-2"/>
        <path id="Path_2" d="M.884 243.768h1.473V242H.884a.884.884 0 0 0 0 1.768zm0 0" class="cls-2" transform="translate(0 -232.492)"/>
        <path id="Path_3" d="M60.884 468.768h1.768a.884.884 0 1 0 0-1.768h-1.768a.884.884 0 1 0 0 1.768zm0 0" class="cls-2" transform="translate(-57.643 -448.652)"/>
        <path id="Path_4" d="M30.884 393.768h1.768a.884.884 0 0 0 0-1.768h-1.768a.884.884 0 0 0 0 1.768zm0 0" class="cls-2" transform="translate(-28.821 -376.599)"/>
        <path id="Path_5" d="M.884 318.768h1.473V317H.884a.884.884 0 1 0 0 1.768zm0 0" class="cls-2" transform="translate(0 -304.545)"/>
        <path id="Path_6" d="M94.042 252.608a6.661 6.661 0 0 0 2.817-.707 5.064 5.064 0 0 1 2.122-.471h2.219a.584.584 0 0 0 .589-.589v-5.893a.583.583 0 0 0-.589-.589h-1.877a3.425 3.425 0 0 1-2.428-1A4.576 4.576 0 0 0 93.642 242h-3.053a.584.584 0 0 0-.589.589v3.536a.584.584 0 0 0 .589.589 1.766 1.766 0 0 0 1.768-1.768.589.589 0 1 1 1.179 0 2.947 2.947 0 0 0 2.947 2.947.589.589 0 1 1 0 1.179 4.11 4.11 0 0 1-3.659-2.258 2.977 2.977 0 0 1-.881.736 2.006 2.006 0 0 1 .151 2.217 2.035 2.035 0 0 1 1.236 2.841zm0 0" class="cls-2" transform="translate(-86.463 -232.492)"/>
    </g>
</svg>
