<svg xmlns="http://www.w3.org/2000/svg" width="41" height="41" viewBox="0 0 41 41">
    <defs>
        <style>
            .cls-1{fill:#eee}
        </style>
    </defs>
    <g id="Intagram" transform="translate(-886 -348)">
        <path id="Rectangle_14" d="M0 0H41V41H0z" transform="translate(886 348)"/>
        <g id="Group_1" transform="translate(-844 353.452)">
            <g id="Group_1-2" transform="translate(1739 4)">
                <path id="Path_14" d="M22.935 6.5a8.075 8.075 0 0 0-.514-2.681A5.661 5.661 0 0 0 19.188.583a8.1 8.1 0 0 0-2.681-.514C15.324.013 14.949 0 11.949 0S8.573.013 7.395.065a8.076 8.076 0 0 0-2.681.513 5.391 5.391 0 0 0-1.96 1.278 5.441 5.441 0 0 0-1.273 1.956 8.1 8.1 0 0 0-.514 2.68C.911 7.675.9 8.051.9 11.051s.011 3.375.063 4.549a8.075 8.075 0 0 0 .514 2.681 5.66 5.66 0 0 0 3.233 3.238 8.1 8.1 0 0 0 2.681.514c1.178.052 1.554.065 4.554.065s3.376-.013 4.554-.065a8.073 8.073 0 0 0 2.681-.514 5.652 5.652 0 0 0 3.233-3.233 8.1 8.1 0 0 0 .514-2.681c.052-1.178.065-1.554.065-4.554s-.006-3.376-.057-4.551zm-1.99 9.022a6.056 6.056 0 0 1-.38 2.05 3.666 3.666 0 0 1-2.1 2.1 6.079 6.079 0 0 1-2.05.38c-1.166.052-1.515.065-4.463.065s-3.3-.013-4.464-.065a6.055 6.055 0 0 1-2.05-.38 3.4 3.4 0 0 1-1.269-.825 3.436 3.436 0 0 1-.825-1.269 6.078 6.078 0 0 1-.38-2.05c-.052-1.165-.065-1.515-.065-4.464s.013-3.3.065-4.463a6.052 6.052 0 0 1 .38-2.05 3.359 3.359 0 0 1 .829-1.269 3.43 3.43 0 0 1 1.269-.824 6.082 6.082 0 0 1 2.05-.38c1.165-.052 1.515-.065 4.463-.065s3.3.013 4.464.065a6.056 6.056 0 0 1 2.05.38 3.4 3.4 0 0 1 1.269.824 3.435 3.435 0 0 1 .825 1.269 6.08 6.08 0 0 1 .38 2.05c.052 1.166.065 1.515.065 4.463s-.008 3.289-.063 4.454z" class="cls-1" transform="translate(-.898)"/>
                <path id="Path_15" d="M130.855 124.281a5.676 5.676 0 1 0 5.676 5.676 5.678 5.678 0 0 0-5.676-5.676zm0 9.359a3.682 3.682 0 1 1 3.682-3.682 3.683 3.683 0 0 1-3.682 3.682z" class="cls-1" transform="translate(-119.805 -118.907)"/>
                <path id="Path_16" d="M364.912 89.771a1.325 1.325 0 1 1-1.325-1.325 1.325 1.325 0 0 1 1.325 1.325z" class="cls-1" transform="translate(-346.635 -84.621)"/>
            </g>
        </g>
    </g>
</svg>
