<svg xmlns="http://www.w3.org/2000/svg" width="21.254" height="21.254" viewBox="0 0 21.254 21.254">
  <path id="loading" d="M24,36.824a1.1,1.1,0,1,1,1.1,1.1A1.1,1.1,0,0,1,24,36.824Zm7.7,7.7a1.1,1.1,0,1,0-1.1-1.1A1.1,1.1,0,0,0,31.7,44.52Zm-4.168-2.428a1.1,1.1,0,1,0-1.1-1.1A1.1,1.1,0,0,0,27.527,42.092Zm5.268,1.328a1.1,1.1,0,1,0-1.1,1.1,1.1,1.1,0,0,0,1.1-1.1m-5.268-1.328a1.1,1.1,0,1,0-1.1-1.1A1.1,1.1,0,0,0,27.527,42.092ZM24,31.694a1.1,1.1,0,1,0,1.1-1.1A1.1,1.1,0,0,0,24,31.694Zm6.6-6.6A1.1,1.1,0,1,0,31.7,24,1.1,1.1,0,0,0,30.6,25.1Zm-4.168,2.428a1.1,1.1,0,1,0,1.1-1.1A1.1,1.1,0,0,0,26.428,27.526ZM24,31.694a1.1,1.1,0,1,0,1.1-1.1A1.1,1.1,0,0,0,24,31.694Zm8.795-6.6a1.1,1.1,0,1,0-1.1,1.1,1.1,1.1,0,0,0,1.1-1.1m-6.367,2.428a1.1,1.1,0,1,0,1.1-1.1A1.1,1.1,0,0,0,26.428,27.526ZM36.89,26.155a8.493,8.493,0,0,1,6.165,8.1,8.316,8.316,0,0,1-1.746,5.128A8.442,8.442,0,0,1,39.793,40.9l-.26.935,2.262.251A10.558,10.558,0,0,0,43.037,27.8a10.835,10.835,0,0,0-5.542-3.76,1.1,1.1,0,1,0-.6,2.114Zm7.991,18.119a1.1,1.1,0,0,0-.971-1.214L38.6,42.47l1.487-5.352a1.1,1.1,0,1,0-2.118-.589l-1.832,6.6a1.1,1.1,0,0,0,.938,1.387l6.6.733a1.123,1.123,0,0,0,.123.007,1.1,1.1,0,0,0,1.091-.978Z" transform="translate(-24 -23.999)"/>
</svg>
