<svg xmlns="http://www.w3.org/2000/svg" width="21.254" height="21.254" viewBox="0 0 21.254 21.254">
    <path fill="#fff" d="M24 36.824a1.1 1.1 0 1 1 1.1 1.1 1.1 1.1 0 0 1-1.1-1.1zm7.7 7.7a1.1 1.1 0 1 0-1.1-1.1 1.1 1.1 0 0 0 1.1 1.096zm-4.168-2.428a1.1 1.1 0 1 0-1.1-1.1 1.1 1.1 0 0 0 1.095 1.096zm5.268 1.328a1.1 1.1 0 1 0-1.1 1.1 1.1 1.1 0 0 0 1.1-1.1m-5.268-1.328a1.1 1.1 0 1 0-1.1-1.1 1.1 1.1 0 0 0 1.095 1.096zM24 31.694a1.1 1.1 0 1 0 1.1-1.1 1.1 1.1 0 0 0-1.1 1.1zm6.6-6.6A1.1 1.1 0 1 0 31.7 24a1.1 1.1 0 0 0-1.1 1.1zm-4.168 2.428a1.1 1.1 0 1 0 1.1-1.1 1.1 1.1 0 0 0-1.104 1.104zM24 31.694a1.1 1.1 0 1 0 1.1-1.1 1.1 1.1 0 0 0-1.1 1.1zm8.795-6.6a1.1 1.1 0 1 0-1.1 1.1 1.1 1.1 0 0 0 1.1-1.1m-6.367 2.428a1.1 1.1 0 1 0 1.1-1.1 1.1 1.1 0 0 0-1.1 1.104zm10.462-1.367a8.493 8.493 0 0 1 6.165 8.1 8.316 8.316 0 0 1-1.746 5.128 8.442 8.442 0 0 1-1.516 1.517l-.26.935 2.262.251A10.558 10.558 0 0 0 43.037 27.8a10.835 10.835 0 0 0-5.542-3.76 1.1 1.1 0 1 0-.6 2.114zm7.991 18.119a1.1 1.1 0 0 0-.971-1.214l-5.31-.59 1.487-5.352a1.1 1.1 0 1 0-2.118-.589l-1.832 6.6a1.1 1.1 0 0 0 .938 1.387l6.6.733a1.123 1.123 0 0 0 .123.007 1.1 1.1 0 0 0 1.091-.978z" transform="translate(-24 -23.999)"/>
</svg>
