<svg xmlns="http://www.w3.org/2000/svg" width="41" height="41" viewBox="0 0 41 41">
    <g>
        <path d="M0 0H41V41H0z" transform="translate(-835 -348) translate(835 348)"/>
        <path fill="#eee" d="M115.805 159.916a14.815 14.815 0 0 0 22.806-12.482q0-.338-.015-.673a10.588 10.588 0 0 0 2.6-2.7 10.388 10.388 0 0 1-2.991.82 5.23 5.23 0 0 0 2.289-2.881 10.45 10.45 0 0 1-3.308 1.264 5.213 5.213 0 0 0-8.877 4.751 14.79 14.79 0 0 1-10.738-5.443 5.214 5.214 0 0 0 1.613 6.955 5.174 5.174 0 0 1-2.359-.651v.066a5.211 5.211 0 0 0 4.175 5.109 5.19 5.19 0 0 1-2.353.089 5.215 5.215 0 0 0 4.867 3.618 10.453 10.453 0 0 1-6.47 2.23 10.593 10.593 0 0 1-1.239-.072z" transform="translate(-835 -348) translate(728.695 216.562)"/>
    </g>
</svg>
