<svg xmlns="http://www.w3.org/2000/svg" width="41" height="41" viewBox="0 0 41 41">
    <defs>
        <style>
            .cls-1{fill:#eee}
        </style>
    </defs>
    <g id="website" transform="translate(-886 -348)">
        <path id="Rectangle_14" d="M0 0H41V41H0z" transform="translate(886 348)"/>
        <g id="link" transform="translate(896.415 358.452)">
            <g id="Group_91" transform="translate(.039 6.46)">
                <g id="Group_90">
                    <path id="Path_38" d="M12.3 165.987a4.559 4.559 0 0 0-.787-.633 4.689 4.689 0 0 0-5.843.633l-4.261 4.263a4.688 4.688 0 0 0 6.627 6.634l3.516-3.516a.335.335 0 0 0-.238-.573h-.134a5.636 5.636 0 0 1-2.143-.415.335.335 0 0 0-.365.074l-2.528 2.532a2.01 2.01 0 0 1-2.844-2.844l4.276-4.273a2.009 2.009 0 0 1 2.84 0 1.373 1.373 0 0 0 1.882 0 1.326 1.326 0 0 0 0-1.882z" class="cls-1" transform="translate(-.039 -164.614)"/>
                </g>
            </g>
            <g id="Group_93" transform="translate(7.474)">
                <g id="Group_92">
                    <path id="Path_39" d="M200.786 1.373a4.688 4.688 0 0 0-6.63 0l-3.513 3.509a.336.336 0 0 0 .244.573h.124a5.626 5.626 0 0 1 2.14.419.335.335 0 0 0 .365-.074l2.522-2.518a2.01 2.01 0 1 1 2.843 2.843l-3.141 3.138-.027.03-1.1 1.092a2.009 2.009 0 0 1-2.84 0 1.373 1.373 0 0 0-1.882 0 1.335 1.335 0 0 0 0 1.889 4.648 4.648 0 0 0 1.339.938c.07.033.141.06.211.09s.144.054.214.08.144.05.214.07l.2.054c.134.033.268.06.405.084a4.662 4.662 0 0 0 .5.047h.255l.2-.023c.074 0 .151-.02.238-.02h.114l.231-.033.107-.02.194-.04h.037a4.688 4.688 0 0 0 2.173-1.232L200.786 8a4.688 4.688 0 0 0 0-6.627z" class="cls-1" transform="translate(-189.502)"/>
                </g>
            </g>
        </g>
    </g>
</svg>
