{
  "accessors": [
    {
      "bufferView": 2,
      "componentType": 5126,
      "count": 724,
      "max": [
        101.0,
        2.0,
        101.0
      ],
      "min": [
        -101.0,
        -2.0,
        -101.0
      ],
      "type": "VEC3"
    },
    {
      "bufferView": 2,
      "byteOffset": 8688,
      "componentType": 5126,
      "count": 724,
      "max": [
        1.0,
        1.0,
        1.0
      ],
      "min": [
        -1.0,
        -1.0,
        -1.0
      ],
      "type": "VEC3"
    },
    {
      "bufferView": 1,
      "componentType": 5126,
      "count": 724,
      "max": [
        1.0,
        1.0
      ],
      "min": [
        0.0,
        0.0
      ],
      "type": "VEC2"
    },
    {
      "bufferView": 0,
      "componentType": 5125,
      "count": 2160,
      "type": "SCALAR"
    },
    {
      "bufferView": 2,
      "byteOffset": 17376,
      "componentType": 5126,
      "count": 724,
      "max": [
        100.0,
        2.0,
        100.0
      ],
      "min": [
        -100.0,
        -2.0,
        -100.0
      ],
      "type": "VEC3"
    },
    {
      "bufferView": 2,
      "byteOffset": 26064,
      "componentType": 5126,
      "count": 724,
      "max": [
        1.0,
        1.0,
        1.0
      ],
      "min": [
        -1.0,
        -1.0,
        -1.0
      ],
      "type": "VEC3"
    },
    {
      "bufferView": 1,
      "byteOffset": 5792,
      "componentType": 5126,
      "count": 724,
      "max": [
        1.0,
        1.0
      ],
      "min": [
        0.0,
        0.0
      ],
      "type": "VEC2"
    },
    {
      "bufferView": 0,
      "byteOffset": 8640,
      "componentType": 5125,
      "count": 2160,
      "type": "SCALAR"
    },
    {
      "bufferView": 2,
      "byteOffset": 34752,
      "componentType": 5126,
      "count": 724,
      "max": [
        100.0,
        2.0,
        100.0
      ],
      "min": [
        -100.0,
        -2.0,
        -100.0
      ],
      "type": "VEC3"
    },
    {
      "bufferView": 2,
      "byteOffset": 43440,
      "componentType": 5126,
      "count": 724,
      "max": [
        1.0,
        1.0,
        1.0
      ],
      "min": [
        -1.0,
        -1.0,
        -1.0
      ],
      "type": "VEC3"
    },
    {
      "bufferView": 1,
      "byteOffset": 11584,
      "componentType": 5126,
      "count": 724,
      "max": [
        1.0,
        1.0
      ],
      "min": [
        0.0,
        0.0
      ],
      "type": "VEC2"
    },
    {
      "bufferView": 0,
      "byteOffset": 17280,
      "componentType": 5125,
      "count": 2160,
      "type": "SCALAR"
    }
  ],
  "asset": {
    "extras": {
      "author": "thelaplage (https://sketchfab.com/thelaplage)",
      "license": "CC-BY-4.0 (http://creativecommons.org/licenses/by/4.0/)",
      "source": "https://sketchfab.com/3d-models/peggy-6c59e524577c4174a3dbcb1505f95baf",
      "title": "peggy"
    },
    "generator": "Sketchfab-10.91.0",
    "version": "2.0"
  },
  "bufferViews": [
    {
      "buffer": 0,
      "byteLength": 25920,
      "name": "floatBufferViews",
      "target": 34963
    },
    {
      "buffer": 0,
      "byteLength": 17376,
      "byteOffset": 25920,
      "byteStride": 8,
      "name": "floatBufferViews",
      "target": 34962
    },
    {
      "buffer": 0,
      "byteLength": 52128,
      "byteOffset": 43296,
      "byteStride": 12,
      "name": "floatBufferViews",
      "target": 34962
    }
  ],
  "buffers": [
    {
      "byteLength": 95424,
      "uri": "scene.bin"
    }
  ],
  "images": [
    {
      "uri": "textures/Mat.1_baseColor.jpeg"
    },
    {
      "uri": "textures/material_baseColor.jpeg"
    }
  ],
  "materials": [
    {
      "doubleSided": true,
      "name": "Mat.2",
      "pbrMetallicRoughness": {
        "baseColorFactor": [
          0.8,
          0.8,
          0.8,
          1.0
        ],
        "metallicFactor": 0.0,
        "roughnessFactor": 0.9524317153998911
      }
    },
    {
      "doubleSided": true,
      "name": "Mat.1",
      "pbrMetallicRoughness": {
        "baseColorTexture": {
          "index": 0
        },
        "metallicFactor": 0.0,
        "roughnessFactor": 0.9524317153998911
      }
    },
    {
      "doubleSided": true,
      "name": "material",
      "pbrMetallicRoughness": {
        "baseColorTexture": {
          "index": 1
        },
        "metallicFactor": 0.0,
        "roughnessFactor": 0.9524317153998911
      }
    }
  ],
  "meshes": [
    {
      "name": "Cylinder_1_Mat.2_0",
      "primitives": [
        {
          "attributes": {
            "NORMAL": 1,
            "POSITION": 0,
            "TEXCOORD_0": 2
          },
          "indices": 3,
          "material": 0,
          "mode": 4
        }
      ]
    },
    {
      "name": "Cylinder_Mat.1_0",
      "primitives": [
        {
          "attributes": {
            "NORMAL": 5,
            "POSITION": 4,
            "TEXCOORD_0": 6
          },
          "indices": 7,
          "material": 1,
          "mode": 4
        }
      ]
    },
    {
      "name": "Cylinder_1_2_Mat_0",
      "primitives": [
        {
          "attributes": {
            "NORMAL": 9,
            "POSITION": 8,
            "TEXCOORD_0": 10
          },
          "indices": 11,
          "material": 2,
          "mode": 4
        }
      ]
    }
  ],
  "nodes": [
    {
      "children": [
        1
      ],
      "matrix": [
        1.0,
        0.0,
        0.0,
        0.0,
        0.0,
        2.220446049250313e-16,
        -1.0,
        0.0,
        0.0,
        1.0,
        2.220446049250313e-16,
        0.0,
        0.0,
        0.0,
        0.0,
        1.0
      ],
      "name": "Sketchfab_model"
    },
    {
      "children": [
        2
      ],
      "matrix": [
        1.0,
        0.0,
        0.0,
        0.0,
        0.0,
        0.0,
        1.0,
        0.0,
        0.0,
        -1.0,
        0.0,
        0.0,
        0.0,
        0.0,
        0.0,
        1.0
      ],
      "name": "734be832510c43e69c1033d68b6627c1.fbx"
    },
    {
      "children": [
        3,
        5
      ],
      "name": "RootNode"
    },
    {
      "children": [
        4
      ],
      "matrix": [
        -0.966803824125289,
        -0.08872769828468227,
        -0.23962003508433796,
        0.0,
        -0.08612194987661126,
        0.9960559198946123,
        -0.0213451210431815,
        0.0,
        0.24056885793087898,
        1.3357370765021415e-16,
        -0.9706320747810842,
        0.0,
        445.62713623046875,
        136.2057342529297,
        271.85430908203125,
        1.0
      ],
      "name": "CINEMA_4D_Editor"
    },
    {
      "name": "Object_4"
    },
    {
      "children": [
        6,
        8,
        10
      ],
      "matrix": [
        0.9976129780301397,
        -1.4901161193847648e-08,
        0.06905321184301184,
        0.0,
        1.493664570948681e-08,
        0.9999999999999999,
        2.4558716513863905e-12,
        0.0,
        -0.06905321184301184,
        1.0289733509694075e-09,
        0.9976129780301398,
        0.0,
        0.0,
        0.0,
        0.0,
        1.0
      ],
      "name": "Null"
    },
    {
      "children": [
        7
      ],
      "matrix": [
        -2.220446049250313e-16,
        -1.1102230246251565e-16,
        -1.0,
        0.0,
        1.0,
        -1.5543122344752192e-15,
        -1.1102230246251565e-16,
        0.0,
        -1.4432899320127035e-15,
        -1.0,
        0.0,
        0.0,
        0.0,
        0.0,
        0.0,
        1.0
      ],
      "name": "Cylinder_1"
    },
    {
      "mesh": 0,
      "name": "Cylinder_1_Mat.2_0"
    },
    {
      "children": [
        9
      ],
      "matrix": [
        -2.220446049250313e-16,
        -1.1102230246251565e-16,
        -1.0,
        0.0,
        1.0,
        -1.5543122344752192e-15,
        -1.1102230246251565e-16,
        0.0,
        -1.4432899320127035e-15,
        -1.0,
        0.0,
        0.0,
        0.6176891922950745,
        8.352585482224908e-25,
        7.632783294297951e-17,
        1.0
      ],
      "name": "Cylinder"
    },
    {
      "mesh": 1,
      "name": "Cylinder_Mat.1_0"
    },
    {
      "children": [
        11
      ],
      "matrix": [
        -2.220446049250313e-16,
        -1.1102230246251565e-16,
        -1.0,
        0.0,
        1.0,
        -1.5543122344752192e-15,
        -1.1102230246251565e-16,
        0.0,
        -1.4432899320127035e-15,
        -1.0,
        0.0,
        0.0,
        -0.43823879957199097,
        1.3903010811359947e-24,
        -5.551115123125783e-17,
        1.0
      ],
      "name": "Cylinder_1_2"
    },
    {
      "mesh": 2,
      "name": "Cylinder_1_2_Mat_0"
    }
  ],
  "samplers": [
    {
      "magFilter": 9729,
      "minFilter": 9987,
      "wrapS": 10497,
      "wrapT": 10497
    }
  ],
  "scene": 0,
  "scenes": [
    {
      "name": "Sketchfab_Scene",
      "nodes": [
        0
      ]
    }
  ],
  "textures": [
    {
      "sampler": 0,
      "source": 0
    },
    {
      "sampler": 0,
      "source": 1
    }
  ]
}
